<svg width="0" height="0" style="position:absolute"><symbol viewBox="0 0 32 32" fill-rule="evenodd" clip-rule="evenodd" stroke-linejoin="round" stroke-miterlimit="1.414" id="dribbble"><path d="M1 16c0-2.03.396-3.974 1.187-5.828.792-1.854 1.857-3.45 3.196-4.79 1.338-1.338 2.935-2.403 4.79-3.195A14.702 14.702 0 0 1 16 1c2.03 0 3.974.396 5.828 1.187 1.854.792 3.45 1.857 4.79 3.196 1.338 1.338 2.403 2.935 3.195 4.79A14.702 14.702 0 0 1 31 16c0 2.03-.396 3.974-1.188 5.828-.79 1.854-1.856 3.45-3.195 4.79-1.338 1.338-2.935 2.403-4.79 3.195A14.702 14.702 0 0 1 16 31c-2.03 0-3.974-.396-5.828-1.188-1.854-.79-3.45-1.856-4.79-3.195-1.338-1.338-2.403-2.935-3.195-4.79A14.702 14.702 0 0 1 1 16zm15.01 9.896c2.723 0 5.052-.97 6.99-2.907 1.938-1.94 2.907-4.27 2.907-6.99 0-2.72-.97-5.05-2.907-6.99-1.938-1.937-4.267-2.906-6.99-2.906-2.72 0-5.05.97-6.988 2.907-1.938 1.94-2.907 4.27-2.907 6.99 0 2.72.97 5.05 2.907 6.99 1.938 1.937 4.268 2.906 6.99 2.906zm1.67-8.535c.372 1.03.682 2.042.93 3.03.123.496.33 1.444.617 2.846a7.89 7.89 0 0 1-3.216.68c-1.895 0-3.565-.597-5.008-1.793 1.36-1.855 3.216-3.32 5.566-4.39.165-.084.536-.207 1.113-.372zm6.186-.37c-.247 2.102-1.196 3.814-2.845 5.133 0-.082-.07-.454-.215-1.113l-.34-1.546c-.042-.29-.29-1.073-.743-2.35 1.485-.124 2.866-.166 4.144-.124zm-7.73-.99c-2.64 1.113-4.784 2.72-6.433 4.824C8.63 19.34 8.095 17.732 8.095 16v-.433c3.133-.082 5.896-.515 8.287-1.3.165.33.372.826.62 1.486-.372.082-.66.165-.867.247zm2.968-.557c-.29-.742-.557-1.38-.804-1.917 1.65-.742 2.948-1.546 3.896-2.412 1.03 1.32 1.608 2.7 1.732 4.144-1.814 0-3.422.062-4.824.185zm-6.185-6.74c.782.906 1.628 2.184 2.535 3.833-2.186.66-4.515 1.01-6.99 1.052.702-2.31 2.186-3.938 4.454-4.886zm7.977 1.112c-.948.784-2.102 1.443-3.463 1.98-.784-1.403-1.567-2.62-2.35-3.65.206-.04.515-.062.927-.062 1.774 0 3.403.578 4.887 1.732z"/></symbol><symbol viewBox="0 0 32 32" fill-rule="evenodd" clip-rule="evenodd" stroke-linejoin="round" stroke-miterlimit="1.414" id="github"><path d="M16 1c4.152 0 7.69 1.507 10.614 4.52C29.538 8.533 31 12.16 31 16.402c0 3.348-.96 6.36-2.88 9.04-1.92 2.68-4.374 4.53-7.366 5.558h-.267c-.536 0-.804-.268-.804-.804 0-.044.01-.546.034-1.506.022-.96.033-1.842.033-2.645 0-1.295-.357-2.255-1.07-2.88 2.052-.268 3.715-.926 4.987-1.975 1.273-1.05 1.91-2.913 1.91-5.592 0-1.607-.514-2.99-1.54-4.152.445-1.294.4-2.656-.135-4.084h-.335c-1.027 0-2.3.535-3.817 1.607-1.295-.358-2.545-.537-3.75-.537s-2.455.18-3.75.536C10.732 7.896 9.46 7.36 8.433 7.36h-.335c-.536 1.428-.58 2.79-.134 4.084-1.027 1.16-1.54 2.545-1.54 4.152 0 2.68.625 4.543 1.875 5.592 1.25 1.05 2.9 1.707 4.954 1.975-.49.49-.803 1.183-.937 2.076a3.837 3.837 0 0 1-1.74.403c-1.117 0-1.988-.558-2.613-1.674-.58-.983-1.36-1.52-2.343-1.608-.937 0-.96.312-.066.937.67.356 1.227 1.115 1.674 2.276.044.178.134.39.268.636.133.246.502.57 1.104.97.603.403 1.33.604 2.177.604.625 0 1.116-.045 1.473-.134v2.61c0 .492-.246.738-.737.738h-.267c-3.036-1.027-5.503-2.868-7.4-5.525C1.95 22.82 1 19.795 1 16.402c0-4.24 1.462-7.87 4.386-10.882C8.31 2.507 11.848 1 16 1z" fill-rule="nonzero"/></symbol><symbol viewBox="0 0 32 32" fill-rule="evenodd" clip-rule="evenodd" stroke-linejoin="round" stroke-miterlimit="1.414" id="instagram"><path d="M20.695 15.985c0 1.3-.457 2.408-1.372 3.323-.914.915-2.022 1.372-3.323 1.372-1.3 0-2.41-.457-3.323-1.372-.915-.915-1.372-2.022-1.372-3.323 0-.122.01-.25.03-.38l.06-.382H9.75v6.22c0 .223.076.41.23.563.15.153.34.23.563.23h10.914a.763.763 0 0 0 .564-.23.763.763 0 0 0 .23-.564v-6.22h-1.646l.06.382c.02.132.03.26.03.38zM16 19.125c.854 0 1.585-.305 2.195-.915.61-.61.915-1.35.915-2.225a2.99 2.99 0 0 0-.915-2.195A2.993 2.993 0 0 0 16 12.875c-.854 0-1.585.305-2.195.915a2.99 2.99 0 0 0-.915 2.195c0 .874.305 1.616.915 2.225.61.61 1.34.915 2.195.915zm3.75-6.402h1.86a.472.472 0 0 0 .488-.488v-1.86a.436.436 0 0 0-.138-.32.47.47 0 0 0-.35-.137h-1.86a.486.486 0 0 0-.335.137.417.417 0 0 0-.153.32v1.86a.6.6 0 0 0 .168.35c.09.092.198.138.32.138zM16 1.015c-2.073 0-4.02.392-5.838 1.174a15.096 15.096 0 0 0-4.757 3.2 15.314 15.314 0 0 0-3.216 4.756C1.395 11.966 1 13.912 1 15.986c0 2.072.396 4.018 1.19 5.837a15.302 15.302 0 0 0 3.215 4.756 15.292 15.292 0 0 0 4.757 3.216c1.82.792 3.765 1.19 5.838 1.19s4.02-.398 5.838-1.19a15.292 15.292 0 0 0 4.757-3.217 15.302 15.302 0 0 0 3.216-4.757c.794-1.82 1.19-3.765 1.19-5.838s-.396-4.02-1.19-5.84a15.314 15.314 0 0 0-3.215-4.755 15.096 15.096 0 0 0-4.757-3.2c-1.82-.783-3.765-1.175-5.838-1.175zm7.805 21.037c0 .488-.168.9-.503 1.235a1.68 1.68 0 0 1-1.235.503H9.933c-.488 0-.9-.168-1.235-.503a1.68 1.68 0 0 1-.503-1.235V9.918c0-.468.168-.874.503-1.22a1.657 1.657 0 0 1 1.235-.518h12.134c.488 0 .9.173 1.235.518.335.346.503.752.503 1.22v12.134z" fill-rule="nonzero"/></symbol><symbol viewBox="0 0 32 32" fill-rule="evenodd" clip-rule="evenodd" stroke-linejoin="round" stroke-miterlimit="1.414" id="twitter"><path d="M1 16c0-2.03.396-3.974 1.188-5.828.79-1.854 1.856-3.45 3.195-4.79 1.338-1.338 2.935-2.403 4.79-3.195A14.702 14.702 0 0 1 16 1c2.03 0 3.974.396 5.828 1.187 1.854.792 3.45 1.857 4.79 3.196 1.338 1.338 2.403 2.935 3.195 4.79A14.702 14.702 0 0 1 31 16c0 2.03-.396 3.974-1.187 5.828-.792 1.854-1.857 3.45-3.196 4.79-1.338 1.338-2.935 2.403-4.79 3.195A14.702 14.702 0 0 1 16 31c-2.03 0-3.974-.396-5.828-1.188-1.854-.79-3.45-1.856-4.79-3.195-1.338-1.338-2.403-2.935-3.194-4.79A14.685 14.685 0 0 1 1 16zm6.078 6.375c0 .104.047.188.14.25.136.104.423.27.86.5a10.62 10.62 0 0 0 4.89 1.188c2.147 0 4.084-.547 5.813-1.64.835-.532 1.574-1.17 2.22-1.915a10.18 10.18 0 0 0 1.54-2.328c.38-.808.663-1.617.85-2.43.188-.813.277-1.6.266-2.36v-.343c.75-.542 1.334-1.162 1.75-1.86a.317.317 0 0 0 .063-.17.313.313 0 0 0-.103-.228.312.312 0 0 0-.226-.102l-.234.078c-.406.166-.64.255-.703.265.177-.207.352-.467.524-.78.17-.312.257-.542.257-.687 0-.073-.033-.14-.1-.204a.328.328 0 0 0-.228-.094c-.04 0-.094.01-.156.03-.77.418-1.453.694-2.047.83-.77-.75-1.698-1.126-2.78-1.126-1.095 0-2.027.385-2.798 1.156-.77.77-1.156 1.703-1.156 2.797 0 .136.01.297.03.485-2.23-.21-4.16-1.053-5.797-2.532-.292-.28-.656-.656-1.094-1.125a.34.34 0 0 0-.266-.124c-.115 0-.193.052-.235.157-.376.52-.563 1.187-.563 2 0 .937.307 1.77.922 2.5-.022 0-.126-.042-.314-.125-.146-.073-.255-.11-.328-.11a.393.393 0 0 0-.266.094.315.315 0 0 0-.11.25c0 .687.173 1.33.517 1.93.342.6.806 1.08 1.39 1.445H9.56a.16.16 0 0 0-.078-.016.422.422 0 0 0-.125-.014.308.308 0 0 0-.22.086.272.272 0 0 0-.093.21 3.85 3.85 0 0 0 1.1 1.796c.507.47 1.098.788 1.775.955-1.104.687-2.328 1.03-3.672 1.03-.03 0-.182-.01-.453-.03-.073 0-.156-.003-.25-.008a3.413 3.413 0 0 0-.172-.008c-.073 0-.14.034-.203.1a.326.326 0 0 0-.094.228z" fill-rule="nonzero"/></symbol></svg>