<?xml version="1.0" standalone="no"?><!DOCTYPE svg PUBLIC "-//W3C//DTD SVG 1.1//EN" "http://www.w3.org/Graphics/SVG/1.1/DTD/svg11.dtd"><svg width="100%" height="100%" viewBox="0 0 32 32" version="1.1" xmlns="http://www.w3.org/2000/svg" xmlns:xlink="http://www.w3.org/1999/xlink" xml:space="preserve" style="fill-rule:evenodd;clip-rule:evenodd;stroke-linejoin:round;stroke-miterlimit:1.41421;"><path d="M1,16c0,-2.031 0.396,-3.974 1.187,-5.828c0.792,-1.854 1.857,-3.451 3.196,-4.789c1.338,-1.339 2.935,-2.404 4.789,-3.196c1.854,-0.791 3.797,-1.187 5.828,-1.187c2.031,0 3.974,0.396 5.828,1.187c1.854,0.792 3.451,1.857 4.789,3.196c1.339,1.338 2.404,2.935 3.196,4.789c0.791,1.854 1.187,3.797 1.187,5.828c0,2.031 -0.396,3.974 -1.188,5.828c-0.791,1.854 -1.856,3.451 -3.195,4.789c-1.338,1.339 -2.935,2.404 -4.789,3.196c-1.854,0.791 -3.797,1.187 -5.828,1.187c-2.031,0 -3.974,-0.396 -5.828,-1.188c-1.854,-0.791 -3.451,-1.856 -4.789,-3.195c-1.339,-1.338 -2.404,-2.935 -3.196,-4.789c-0.791,-1.854 -1.187,-3.797 -1.187,-5.828ZM16.011,25.896c2.722,0 5.051,-0.969 6.989,-2.907c1.938,-1.938 2.907,-4.268 2.907,-6.989c0,-2.721 -0.969,-5.051 -2.907,-6.989c-1.938,-1.938 -4.267,-2.907 -6.989,-2.907c-2.721,0 -5.051,0.969 -6.989,2.907c-1.938,1.938 -2.907,4.268 -2.907,6.989c0,2.721 0.969,5.051 2.907,6.989c1.938,1.938 4.268,2.907 6.989,2.907ZM17.681,17.361c0.371,1.03 0.681,2.041 0.928,3.03c0.124,0.495 0.33,1.443 0.618,2.845c-1.03,0.454 -2.102,0.681 -3.216,0.681c-1.896,0 -3.566,-0.598 -5.009,-1.794c1.36,-1.855 3.216,-3.319 5.566,-4.391c0.165,-0.083 0.536,-0.206 1.113,-0.371ZM23.866,16.99c-0.247,2.102 -1.196,3.814 -2.845,5.133c0,-0.082 -0.072,-0.454 -0.216,-1.113c-0.145,-0.66 -0.258,-1.175 -0.341,-1.546c-0.041,-0.289 -0.288,-1.073 -0.742,-2.351c1.485,-0.123 2.866,-0.165 4.144,-0.123ZM16.135,16c-2.639,1.113 -4.783,2.721 -6.432,4.824c-1.072,-1.484 -1.608,-3.092 -1.608,-4.824l0,-0.433c3.133,-0.082 5.896,-0.515 8.287,-1.299c0.165,0.33 0.372,0.825 0.619,1.485c-0.371,0.082 -0.66,0.165 -0.866,0.247ZM19.104,15.443c-0.289,-0.742 -0.557,-1.381 -0.804,-1.917c1.649,-0.742 2.948,-1.546 3.896,-2.412c1.031,1.319 1.608,2.701 1.732,4.144c-1.814,0 -3.422,0.062 -4.824,0.185ZM12.919,8.702c0.783,0.907 1.629,2.185 2.536,3.834c-2.186,0.66 -4.515,1.011 -6.989,1.052c0.701,-2.309 2.185,-3.938 4.453,-4.886ZM20.897,9.815c-0.948,0.784 -2.102,1.443 -3.463,1.979c-0.784,-1.402 -1.567,-2.618 -2.35,-3.649c0.206,-0.041 0.515,-0.062 0.927,-0.062c1.773,0 3.402,0.578 4.886,1.732Z" style="fill:#000;"/></svg>