<?xml version="1.0" standalone="no"?><!DOCTYPE svg PUBLIC "-//W3C//DTD SVG 1.1//EN" "http://www.w3.org/Graphics/SVG/1.1/DTD/svg11.dtd"><svg width="100%" height="100%" viewBox="0 0 32 32" version="1.1" xmlns="http://www.w3.org/2000/svg" xmlns:xlink="http://www.w3.org/1999/xlink" xml:space="preserve" style="fill-rule:evenodd;clip-rule:evenodd;stroke-linejoin:round;stroke-miterlimit:1.41421;"><path d="M16,1c4.152,0 7.69,1.507 10.614,4.52c2.924,3.013 4.386,6.641 4.386,10.882c0,3.348 -0.96,6.361 -2.879,9.04c-1.92,2.679 -4.375,4.531 -7.367,5.558l-0.267,0c-0.536,0 -0.804,-0.268 -0.804,-0.804c0,-0.044 0.011,-0.546 0.034,-1.506c0.022,-0.96 0.033,-1.842 0.033,-2.645c0,-1.295 -0.357,-2.255 -1.071,-2.88c2.053,-0.268 3.716,-0.926 4.988,-1.975c1.273,-1.049 1.909,-2.913 1.909,-5.592c0,-1.607 -0.513,-2.991 -1.54,-4.152c0.446,-1.294 0.402,-2.656 -0.134,-4.084l-0.335,0c-1.027,0 -2.299,0.535 -3.817,1.607c-1.295,-0.357 -2.545,-0.536 -3.75,-0.536c-1.205,0 -2.455,0.179 -3.75,0.536c-1.518,-1.072 -2.79,-1.607 -3.817,-1.607l-0.335,0c-0.536,1.428 -0.58,2.79 -0.134,4.084c-1.027,1.161 -1.54,2.545 -1.54,4.152c0,2.679 0.625,4.543 1.875,5.592c1.25,1.049 2.902,1.707 4.955,1.975c-0.491,0.491 -0.803,1.183 -0.937,2.076c-0.536,0.268 -1.116,0.402 -1.741,0.402c-1.116,0 -1.987,-0.558 -2.612,-1.674c-0.58,-0.982 -1.361,-1.518 -2.343,-1.607c-0.938,0 -0.96,0.312 -0.067,0.937c0.669,0.357 1.227,1.116 1.674,2.277c0.044,0.178 0.134,0.391 0.268,0.636c0.133,0.246 0.502,0.569 1.104,0.971c0.603,0.402 1.329,0.603 2.177,0.603c0.625,0 1.116,-0.045 1.473,-0.134l0,2.611c0,0.491 -0.246,0.737 -0.737,0.737l-0.267,0c-3.036,-1.027 -5.503,-2.868 -7.4,-5.525c-1.897,-2.656 -2.846,-5.68 -2.846,-9.073c0,-4.241 1.462,-7.869 4.386,-10.882c2.924,-3.013 6.462,-4.52 10.614,-4.52Z" style="fill:#000;fill-rule:nonzero;"/></svg>