<?xml version="1.0" standalone="no"?><!DOCTYPE svg PUBLIC "-//W3C//DTD SVG 1.1//EN" "http://www.w3.org/Graphics/SVG/1.1/DTD/svg11.dtd"><svg width="100%" height="100%" viewBox="0 0 32 32" version="1.1" xmlns="http://www.w3.org/2000/svg" xmlns:xlink="http://www.w3.org/1999/xlink" xml:space="preserve" style="fill-rule:evenodd;clip-rule:evenodd;stroke-linejoin:round;stroke-miterlimit:1.41421;"><path d="M20.695,15.985c0,1.301 -0.457,2.408 -1.372,3.323c-0.914,0.915 -2.022,1.372 -3.323,1.372c-1.301,0 -2.409,-0.457 -3.323,-1.372c-0.915,-0.915 -1.372,-2.022 -1.372,-3.323c0,-0.122 0.01,-0.249 0.03,-0.381c0.021,-0.132 0.041,-0.259 0.061,-0.381l-1.646,0l0,6.219c0,0.224 0.076,0.412 0.229,0.564c0.152,0.153 0.34,0.229 0.564,0.229l10.914,0c0.224,0 0.412,-0.076 0.564,-0.229c0.153,-0.152 0.229,-0.34 0.229,-0.564l0,-6.219l-1.646,0c0.02,0.122 0.04,0.249 0.061,0.381c0.02,0.132 0.03,0.259 0.03,0.381ZM16,19.125c0.854,0 1.585,-0.305 2.195,-0.915c0.61,-0.609 0.915,-1.351 0.915,-2.225c0,-0.854 -0.305,-1.586 -0.915,-2.195c-0.61,-0.61 -1.341,-0.915 -2.195,-0.915c-0.854,0 -1.585,0.305 -2.195,0.915c-0.61,0.609 -0.915,1.341 -0.915,2.195c0,0.874 0.305,1.616 0.915,2.225c0.61,0.61 1.341,0.915 2.195,0.915ZM19.75,12.723l1.86,0c0.142,0 0.259,-0.046 0.35,-0.138c0.092,-0.091 0.138,-0.208 0.138,-0.35l0,-1.86c0,-0.122 -0.046,-0.229 -0.138,-0.32c-0.091,-0.092 -0.208,-0.137 -0.35,-0.137l-1.86,0c-0.122,0 -0.234,0.045 -0.335,0.137c-0.102,0.091 -0.153,0.198 -0.153,0.32l0,1.86c0.021,0.142 0.076,0.259 0.168,0.35c0.091,0.092 0.198,0.138 0.32,0.138ZM16,1.015c-2.073,0 -4.019,0.392 -5.838,1.174c-1.82,0.783 -3.405,1.85 -4.757,3.201c-1.351,1.352 -2.423,2.937 -3.216,4.756c-0.793,1.819 -1.189,3.766 -1.189,5.839c0,2.073 0.396,4.019 1.189,5.838c0.793,1.819 1.865,3.405 3.216,4.756c1.352,1.352 2.937,2.424 4.757,3.217c1.819,0.792 3.765,1.189 5.838,1.189c2.073,0 4.019,-0.397 5.838,-1.189c1.82,-0.793 3.405,-1.865 4.757,-3.217c1.351,-1.351 2.423,-2.937 3.216,-4.756c0.793,-1.819 1.189,-3.765 1.189,-5.838c0,-2.073 -0.396,-4.02 -1.189,-5.839c-0.793,-1.819 -1.865,-3.404 -3.216,-4.756c-1.352,-1.351 -2.937,-2.418 -4.757,-3.201c-1.819,-0.782 -3.765,-1.174 -5.838,-1.174ZM23.805,22.052c0,0.488 -0.168,0.899 -0.503,1.235c-0.336,0.335 -0.747,0.503 -1.235,0.503l-12.134,0c-0.488,0 -0.899,-0.168 -1.235,-0.503c-0.335,-0.336 -0.503,-0.747 -0.503,-1.235l0,-12.134c0,-0.468 0.168,-0.874 0.503,-1.22c0.336,-0.345 0.747,-0.518 1.235,-0.518l12.134,0c0.488,0 0.899,0.173 1.235,0.518c0.335,0.346 0.503,0.752 0.503,1.22l0,12.134Z" style="fill:#000;fill-rule:nonzero;"/></svg>