<?xml version="1.0" standalone="no"?><!DOCTYPE svg PUBLIC "-//W3C//DTD SVG 1.1//EN" "http://www.w3.org/Graphics/SVG/1.1/DTD/svg11.dtd"><svg width="100%" height="100%" viewBox="0 0 32 32" version="1.1" xmlns="http://www.w3.org/2000/svg" xmlns:xlink="http://www.w3.org/1999/xlink" xml:space="preserve" style="fill-rule:evenodd;clip-rule:evenodd;stroke-linejoin:round;stroke-miterlimit:1.41421;"><path d="M1,16c0,-2.031 0.396,-3.974 1.188,-5.828c0.791,-1.854 1.856,-3.451 3.195,-4.789c1.338,-1.339 2.935,-2.404 4.789,-3.196c1.854,-0.791 3.797,-1.187 5.828,-1.187c2.031,0 3.974,0.396 5.828,1.187c1.854,0.792 3.451,1.857 4.789,3.196c1.339,1.338 2.404,2.935 3.196,4.789c0.791,1.854 1.187,3.797 1.187,5.828c0,2.031 -0.396,3.974 -1.187,5.828c-0.792,1.854 -1.857,3.451 -3.196,4.789c-1.338,1.339 -2.935,2.404 -4.789,3.196c-1.854,0.791 -3.797,1.187 -5.828,1.187c-2.031,0 -3.974,-0.396 -5.828,-1.188c-1.854,-0.791 -3.451,-1.856 -4.789,-3.195c-1.339,-1.338 -2.404,-2.935 -3.195,-4.789c-0.792,-1.854 -1.188,-3.797 -1.188,-5.828ZM7.078,22.375c0,0.104 0.047,0.188 0.141,0.25c0.135,0.104 0.422,0.271 0.859,0.5c1.552,0.792 3.182,1.188 4.891,1.188c2.146,0 4.083,-0.547 5.812,-1.641c0.834,-0.531 1.573,-1.169 2.219,-1.914c0.646,-0.745 1.159,-1.521 1.539,-2.328c0.38,-0.808 0.664,-1.617 0.852,-2.43c0.187,-0.813 0.276,-1.599 0.265,-2.359l0,-0.344c0.75,-0.542 1.334,-1.162 1.75,-1.859c0.042,-0.063 0.063,-0.12 0.063,-0.172c0,-0.084 -0.034,-0.159 -0.102,-0.227c-0.068,-0.068 -0.143,-0.101 -0.226,-0.101l-0.235,0.078c-0.406,0.166 -0.64,0.255 -0.703,0.265c0.177,-0.208 0.352,-0.468 0.524,-0.781c0.171,-0.312 0.257,-0.542 0.257,-0.687c0,-0.073 -0.033,-0.141 -0.101,-0.204c-0.068,-0.062 -0.143,-0.093 -0.227,-0.093c-0.041,0 -0.094,0.01 -0.156,0.031c-0.771,0.417 -1.453,0.693 -2.047,0.828c-0.771,-0.75 -1.698,-1.125 -2.781,-1.125c-1.094,0 -2.026,0.385 -2.797,1.156c-0.771,0.771 -1.156,1.703 -1.156,2.797c0,0.136 0.01,0.297 0.031,0.485c-2.229,-0.209 -4.161,-1.053 -5.797,-2.532c-0.292,-0.281 -0.656,-0.656 -1.094,-1.125c-0.073,-0.083 -0.161,-0.125 -0.265,-0.125c-0.115,0 -0.193,0.052 -0.235,0.157c-0.375,0.52 -0.562,1.187 -0.562,2c0,0.937 0.307,1.77 0.922,2.5c-0.021,0 -0.125,-0.042 -0.313,-0.125c-0.146,-0.073 -0.255,-0.11 -0.328,-0.11c-0.104,0 -0.193,0.031 -0.266,0.094c-0.072,0.062 -0.109,0.146 -0.109,0.25c0,0.687 0.172,1.331 0.516,1.93c0.343,0.599 0.807,1.08 1.39,1.445l-0.047,0c-0.02,-0.011 -0.046,-0.016 -0.078,-0.016c-0.031,-0.01 -0.073,-0.015 -0.125,-0.015c-0.083,0 -0.156,0.028 -0.218,0.086c-0.063,0.057 -0.094,0.127 -0.094,0.211c0,0.01 0.01,0.046 0.031,0.109c0.208,0.656 0.565,1.219 1.07,1.687c0.506,0.469 1.097,0.787 1.774,0.954c-1.104,0.687 -2.328,1.031 -3.672,1.031c-0.031,0 -0.182,-0.011 -0.453,-0.031c-0.073,0 -0.156,-0.003 -0.25,-0.008c-0.094,-0.006 -0.151,-0.008 -0.172,-0.008c-0.073,0 -0.141,0.034 -0.203,0.101c-0.063,0.068 -0.094,0.144 -0.094,0.227Z" style="fill:#000;fill-rule:nonzero;"/></svg>